#!OML:ASF F:\VICON\USERDATA\INSTALL\rory3\rory3.ASF
:FULLY-SPECIFIED
:DEGREES
410
root 8.97067 17.5952 3.80741 -363.268 39.2868 -358.579
lowerback 13.2977 1.33937 -4.7354
upperback 1.34808 1.12457 0.274732
thorax -6.13439 0.684723 2.75944
lowerneck -12.7404 -9.17741 -14.0061
upperneck 33.2421 -14.424 14.2176
head 16.2379 -6.04 5.96675
rclavicle 1.77974e-014 2.18166e-014
rhumerus -40.4228 -21.4579 -69.1515
rradius 37.7837
rwrist 3.32989
rhand -17.8323 7.55003
rfingers 7.12502
rthumb 8.4322 -22.2616
lclavicle 1.77974e-014 2.18166e-014
lhumerus -31.4401 3.00168 84.989
lradius 29.4256
lwrist -7.82893
lhand -18.5994 24.3757
lfingers 7.12502
lthumb 7.69181 54.2158
rfemur -14.3896 -2.69663 20.2763
rtibia 44.0776
rfoot -20.4232 13.6319
rtoes -0.4572
lfemur -13.9569 -4.42786 -22.1396
ltibia 32.3421
lfoot -10.9055 -15.4424
ltoes 1.91152
411
root 8.95984 17.6027 3.84221 -363.032 38.4606 -358.344
lowerback 13.2358 1.43045 -4.86736
upperback 1.33233 1.21937 0.134923
thorax -6.12448 0.732506 2.66879
lowerneck -12.763 -9.16617 -14.0056
upperneck 33.2891 -14.471 14.3592
head 16.2958 -6.04462 6.0258
rclavicle -4.65902e-016 6.75868e-015
rhumerus -40.2993 -22.0134 -69.2819
rradius 37.3439
rwrist 4.3328
rhand -18.1345 8.78446
rfingers 7.12502
rthumb 8.14053 -21.0387
lclavicle -4.65902e-016 6.75868e-015
lhumerus -31.3531 3.26641 84.6622
lradius 29.0405
lwrist -8.0333
lhand -18.6141 24.434
lfingers 7.12502
lthumb 7.67764 54.2746
rfemur -14.9007 -2.92536 20.0351
rtibia 44.8408
rfoot -20.8591 14.2496
rtoes -4.42253
lfemur -13.7989 -4.1251 -22.2176
ltibia 32.1424
lfoot -11.0814 -14.6929
ltoes 1.13513
412
root 8.94765 17.6084 3.87265 -362.892 37.6691 -358.169
lowerback 13.399 1.42335 -4.75699
upperback 1.2514 1.19538 -0.155971
thorax -6.29085 0.718803 2.29947
lowerneck -12.8448 -9.0644 -13.6788
upperneck 33.4364 -14.4287 14.3657
head 16.3478 -5.98175 5.9886
rclavicle 3.82785e-014 -2.44505e-014
rhumerus -40.442 -22.429 -69.7893
rradius 37.3822
rwrist 4.96331
rhand -18.4639 9.08668
rfingers 7.12502
rthumb 7.8226 -20.7486
lclavicle 3.82785e-014 -2.44505e-014
lhumerus -31.399 3.41212 84.0451
lradius 28.7332
lwrist -8.17131
lhand -18.6912 24.9515
lfingers 7.12502
lthumb 7.60322 54.7949
rfemur -15.3865 -3.29391 19.8001
rtibia 45.6159
rfoot -21.3495 14.8366
rtoes -9.28588
lfemur -13.5875 -4.01159 -22.2449
ltibia 31.9452
lfoot -11.0606 -14.1109
ltoes 1.02041
413
root 8.93483 17.6096 3.89919 -362.699 36.9247 -357.92
lowerback 13.631 1.40208 -4.73272
upperback 1.11346 1.13642 -0.399064
thorax -6.55735 0.693165 2.03426
lowerneck -12.8802 -8.98101 -13.4656
upperneck 33.6493 -14.3753 14.314
head 16.4252 -5.93664 5.95287
rclavicle 1.12512e-013 -3.55825e-014
rhumerus -40.6503 -22.7264 -70.2272
rradius 37.7174
rwrist 5.1039
rhand -18.1995 8.68474
rfingers 7.12502
rthumb 8.07777 -21.1409
lclavicle 1.12512e-013 -3.55825e-014
lhumerus -31.592 3.85592 83.418
lradius 28.4352
lwrist -8.48731
lhand -18.4611 25.23
lfingers 7.12502
lthumb 7.82528 55.0652
rfemur -15.9196 -3.73544 19.4551
rtibia 46.3892
rfoot -21.6442 15.442
rtoes -13.362
lfemur -13.4083 -3.9664 -22.3294
ltibia 31.7743
lfoot -11.0752 -13.3752
ltoes 0.305659
414
root 8.92234 17.6125 3.92713 -362.546 36.1723 -357.644
lowerback 13.8092 1.41072 -4.90544
upperback 1.04386 1.10213 -0.486206
thorax -6.73044 0.684442 2.04237
lowerneck -12.9362 -8.92496 -13.4594
upperneck 33.8252 -14.2622 14.167
head 16.4861 -5.90458 5.91767
rclavicle 1.65488e-014 -1.59028e-015
rhumerus -40.7187 -22.7377 -70.5454
rradius 38.0222
rwrist 4.9345
rhand -17.92 8.55087
rfingers 7.12502
rthumb 8.34756 -21.2642
lclavicle 1.65488e-014 -1.59028e-015
lhumerus -31.769 4.37585 83.0468
lradius 28.1208
lwrist -8.67206
lhand -18.666 25.3307
lfingers 7.12502
lthumb 7.62757 55.1732
rfemur -16.3692 -4.03354 19.0651
rtibia 47.1187
rfoot -21.8137 15.7262
rtoes -16.357
lfemur -13.1489 -3.87072 -22.4391
ltibia 31.5837
lfoot -11.2269 -12.6155
ltoes -0.77987
415
root 8.90945 17.6182 3.95576 -362.421 35.4646 -357.511
lowerback 13.799 1.42951 -5.01317
upperback 1.06681 1.11009 -0.507581
thorax -6.70254 0.690127 2.07932
lowerneck -12.9893 -8.89705 -13.4951
upperneck 33.8055 -14.189 14.1115
head 16.4694 -5.88665 5.90933
rclavicle 5.75854e-014 2.20651e-014
rhumerus -40.6078 -22.8238 -70.8453
rradius 38.1598
rwrist 4.85785
rhand -17.7508 8.29904
rfingers 7.12502
rthumb 8.51087 -21.5094
lclavicle 5.75854e-014 2.20651e-014
lhumerus -31.6699 4.95559 82.7577
lradius 27.6526
lwrist -8.90616
lhand -18.8973 25.0854
lfingers 7.12502
lthumb 7.40425 54.9358
rfemur -16.8367 -4.36243 18.7706
rtibia 47.779
rfoot -21.983 15.6911
rtoes -17.686
lfemur -12.9545 -3.77858 -22.425
ltibia 31.3744
lfoot -11.3045 -12.0718
ltoes -1.1945
416
root 8.89532 17.6254 3.98934 -362.204 34.7365 -357.393
lowerback 13.644 1.42716 -5.183
upperback 1.08046 1.09178 -0.488672
thorax -6.60386 0.683823 2.20133
lowerneck -13.043 -8.85525 -13.6161
upperneck 33.7511 -14.0937 14.1293
head 16.4482 -5.863 5.95292
rclavicle 1.52965e-013 1.49089e-014
rhumerus -40.4492 -22.8275 -71.1627
rradius 38.249
rwrist 4.91978
rhand -17.682 7.98261
rfingers 7.12502
rthumb 8.57719 -21.8232
lclavicle 1.52965e-013 1.49089e-014
lhumerus -31.4931 5.80599 82.4171
lradius 27.0667
lwrist -9.37027
lhand -19.1698 24.901
lfingers 7.12502
lthumb 7.14127 54.7605
rfemur -17.3963 -4.60128 18.4788
rtibia 48.3695
rfoot -22.0709 15.147
rtoes -17.8789
lfemur -12.8403 -3.66415 -22.3812
ltibia 31.1066
lfoot -11.3045 -11.5032
ltoes -1.68642
417
root 8.88141 17.6306 4.0215 -362.05 34.0715 -357.269
lowerback 13.6446 1.38768 -5.23842
upperback 1.04764 1.02476 -0.554987
thorax -6.63394 0.652774 2.17485
lowerneck -13.1341 -8.82761 -13.6998
upperneck 33.8157 -14.0474 14.1576
head 16.5065 -5.8509 5.99291
rclavicle 7.33018e-016 -1.11319e-014
rhumerus -40.4083 -22.8407 -71.5784
rradius 38.3349
rwrist 4.90643
rhand -17.7086 7.90218
rfingers 7.12502
rthumb 8.55155 -21.9047
lclavicle 7.33018e-016 -1.11319e-014
lhumerus -31.5091 6.49775 81.9436
lradius 26.6341
lwrist -9.81641
lhand -19.2498 24.9537
lfingers 7.12502
lthumb 7.06399 54.8159
rfemur -17.8102 -4.85187 18.1034
rtibia 48.8392
rfoot -22.1391 13.8915
rtoes -18.1462
lfemur -12.6508 -3.42564 -22.3621
ltibia 30.792
lfoot -11.3341 -10.9765
ltoes -2.81592
418
root 8.86767 17.6421 4.05077 -361.875 33.392 -357.049
lowerback 13.6871 1.3833 -5.32152
upperback 1.01166 0.993231 -0.681412
thorax -6.69296 0.639763 2.09254
lowerneck -13.3121 -8.81441 -13.7442
upperneck 33.9862 -14.0458 14.2051
head 16.6506 -5.84488 6.03222
rclavicle -1.21756e-014 -3.57812e-015
rhumerus -40.3816 -22.8616 -72.0009
rradius 38.4026
rwrist 4.90166
rhand -17.7028 7.79624
rfingers 7.12502
rthumb 8.55711 -22.0104
lclavicle -1.21756e-014 -3.57812e-015
lhumerus -31.5569 6.80972 81.5663
lradius 26.3096
lwrist -9.90382
lhand -19.144 24.5759
lfingers 7.12502
lthumb 7.16613 54.4345
rfemur -18.1142 -5.15267 17.6046
rtibia 49.1471
rfoot -22.5454 11.4908
rtoes -20.4178
lfemur -12.4264 -3.06066 -22.4403
ltibia 30.4582
lfoot -11.3697 -10.5556
ltoes -3.89388
419
root 8.85389 17.6571 4.08582 -361.875 32.7047 -356.972
lowerback 13.6882 1.38497 -5.38838
upperback 1.06796 0.987901 -0.670783
thorax -6.6343 0.636965 2.14322
lowerneck -13.6024 -8.80298 -13.8444
upperneck 34.1589 -13.9816 14.1572
head 16.805 -5.82653 6.04706
rclavicle 9.67584e-014 9.74045e-015
rhumerus -40.1786 -22.7354 -72.3198
rradius 38.4239
rwrist 5.0109
rhand -17.4888 7.32051
rfingers 7.12502
rthumb 8.76364 -22.4775
lclavicle 9.67584e-014 9.74045e-015
lhumerus -31.623 6.68828 81.5539
lradius 26.2286
lwrist -9.31933
lhand -19.4017 24.813
lfingers 7.12502
lthumb 6.9174 54.68
rfemur -18.1833 -5.45246 17.2595
rtibia 49.2351
rfoot -22.9699 8.3495
rtoes -22.8065
lfemur -12.07 -2.67843 -22.3749
ltibia 30.141
lfoot -11.3877 -10.2095
ltoes -4.22791
420
root 8.83689 17.6653 4.12138 -362.051 32.0529 -357.136
lowerback 13.7729 1.34439 -5.29967
upperback 1.1168 0.950213 -0.573973
thorax -6.62639 0.616253 2.20284
lowerneck -13.7248 -8.75564 -13.8885
upperneck 34.1896 -13.8406 14.0143
head 16.8066 -5.78867 6.01518
rclavicle -8.39617e-014 1.55052e-014
rhumerus -39.9958 -22.3208 -72.7207
rradius 38.4344
rwrist 4.79157
rhand -17.3839 7.15472
rfingers 7.12502
rthumb 8.86486 -22.6391
lclavicle -8.39617e-014 1.55052e-014
lhumerus -31.83 6.08614 81.7216
lradius 26.4112
lwrist -8.36437
lhand -19.6138 25.9263
lfingers 7.12502
lthumb 6.71266 55.7999
rfemur -18.1124 -5.66814 17.0754
rtibia 49.1331
rfoot -22.8572 5.78945
rtoes -21.4097
lfemur -11.6729 -2.47573 -22.0858
ltibia 29.7928
lfoot -11.3711 -9.73207
ltoes -4.94987
421
root 8.82025 17.6755 4.15567 -362.15 31.3776 -357.373
lowerback 13.732 1.30127 -5.07745
upperback 1.1312 0.932914 -0.525391
thorax -6.58385 0.600721 2.13319
lowerneck -13.7452 -8.69356 -13.7077
upperneck 34.1094 -13.7101 13.791
head 16.6928 -5.7395 5.8959
rclavicle 7.71657e-014 -7.95139e-015
rhumerus -39.9435 -22.002 -73.168
rradius 38.5013
rwrist 4.62862
rhand -17.4041 7.26539
rfingers 7.12502
rthumb 8.84542 -22.5292
lclavicle 7.71657e-014 -7.95139e-015
lhumerus -31.8488 6.05995 81.5755
lradius 26.2028
lwrist -8.31427
lhand -19.5241 26.2737
lfingers 7.12502
lthumb 6.79926 56.1446
rfemur -18.1362 -5.66727 16.853
rtibia 48.8946
rfoot -22.3985 4.05222
rtoes -18.0564
lfemur -11.3667 -2.35366 -21.7322
ltibia 29.3757
lfoot -11.3197 -9.14206
ltoes -5.76831
422
root 8.80773 17.6954 4.19305 -362.015 30.7605 -357.258
lowerback 13.5373 1.27118 -5.08291
upperback 1.17869 0.901981 -0.583096
thorax -6.42135 0.580666 2.08399
lowerneck -13.9499 -8.65194 -13.4829
upperneck 34.1485 -13.6237 13.5771
head 16.6957 -5.6929 5.76945
rclavicle -1.3418e-014 -1.70955e-014
rhumerus -39.9167 -21.8948 -73.5276
rradius 38.72
rwrist 4.83763
rhand -17.0399 6.87638
rfingers 7.12502
rthumb 9.19681 -22.9031
lclavicle -1.3418e-014 -1.70955e-014
lhumerus -31.7495 6.15309 81.4422
lradius 25.9064
lwrist -8.13488
lhand -19.9915 26.4466
lfingers 7.12502
lthumb 6.34801 56.3315
rfemur -18.1773 -5.64427 16.1817
rtibia 48.5673
rfoot -21.8022 2.96924
rtoes -14.6126
lfemur -11.032 -2.25218 -21.72
ltibia 28.9159
lfoot -11.2371 -8.65293
ltoes -6.03416
423
root 8.7937 17.7188 4.23331 -361.836 30.228 -356.887
lowerback 13.5064 1.25057 -5.3659
upperback 1.17408 0.829821 -0.643059
thorax -6.40707 0.552058 2.1941
lowerneck -14.0609 -8.62881 -13.5407
upperneck 34.2267 -13.5672 13.5494
head 16.755 -5.67811 5.78132
rclavicle 2.3966e-014 -3.97569e-016
rhumerus -39.9107 -21.4761 -73.8756
rradius 38.8766
rwrist 4.6442
rhand -16.8399 6.55472
rfingers 7.12502
rthumb 9.38981 -23.2161
lclavicle 2.3966e-014 -3.97569e-016
lhumerus -31.9053 6.0273 81.4698
lradius 25.8684
lwrist -7.76878
lhand -20.4538 26.9059
lfingers 7.12502
lthumb 5.90174 56.8037
rfemur -18.1233 -5.67063 15.2059
rtibia 48.1679
rfoot -21.2086 2.09742
rtoes -10.5459
lfemur -10.5502 -2.18889 -21.9536
ltibia 28.4179
lfoot -11.1493 -8.17314
ltoes -6.33201
424
root 8.7747 17.7417 4.27363 -361.862 29.8304 -356.945
lowerback 13.5687 1.14905 -5.3064
upperback 1.10367 0.700609 -0.584263
thorax -6.50676 0.491263 2.24641
lowerneck -14.0714 -8.58055 -13.6153
upperneck 34.297 -13.4866 13.549
head 16.7848 -5.65668 5.81648
rclavicle 2.94077e-014 5.86415e-015
rhumerus -39.8604 -21.0958 -74.1623
rradius 38.8941
rwrist 4.34901
rhand -16.5968 6.32738
rfingers 7.12502
rthumb 9.62443 -23.4328
lclavicle 2.94077e-014 5.86415e-015
lhumerus -32.1253 6.26856 81.2844
lradius 25.7408
lwrist -8.30998
lhand -20.1421 26.3184
lfingers 7.12502
lthumb 6.20263 56.2076
rfemur -18.015 -5.76191 14.6616
rtibia 47.6535
rfoot -20.523 1.18449
rtoes -6.42599
lfemur -10.1312 -2.21097 -21.7589
ltibia 27.9314
lfoot -11.0793 -7.7788
ltoes -6.70047
